<svg xmlns="http://www.w3.org/2000/svg" xmlns:xlink="http://www.w3.org/1999/xlink" width="88" height="89" viewBox="0 0 88 89">
  <defs>
    <clipPath id="clip-แดชบอร์ด">
      <rect width="88" height="89"/>
    </clipPath>
  </defs>
  <g id="แดชบอร์ด" clip-path="url(#clip-แดชบอร์ด)">
    <path id="Path_628" data-name="Path 628" d="M24.663,10.567A2.228,2.228,0,0,1,25.1,7.316,40.653,40.653,0,0,1,48.411,0a41.1,41.1,0,0,1,40.7,37.353A2.227,2.227,0,0,1,86.9,39.768H49.979a2.225,2.225,0,0,1-1.708-.8Zm60.774,34.4H46.428L21.485,14.955a2.224,2.224,0,0,0-1.6-.8,2.195,2.195,0,0,0-1.673.641A40.868,40.868,0,0,0,46.952,84.73a41.1,41.1,0,0,0,40.7-37.353,2.226,2.226,0,0,0-2.216-2.415Z" transform="translate(-4.07 2)" fill="#8b929d"/>
  </g>
</svg>
