<svg xmlns="http://www.w3.org/2000/svg" xmlns:xlink="http://www.w3.org/1999/xlink" width="71" height="91" viewBox="0 0 71 91">
  <defs>
    <clipPath id="clip-การประเมินผลสัมฤทธิ์">
      <rect width="71" height="91"/>
    </clipPath>
  </defs>
  <g id="การประเมินผลสัมฤทธิ์" clip-path="url(#clip-การประเมินผลสัมฤทธิ์)">
    <g id="Group_21031" data-name="Group 21031" transform="translate(-1953.75 -192.472)">
      <path id="Path_16857" data-name="Path 16857" d="M1992.576,194.47l-.036.014c.162-.009.325-.014.49-.014Z" transform="translate(-27.703)" fill="#8b929d"/>
      <path id="Path_16861" data-name="Path 16861" d="M2174.708,218.149h-1.022q-8.958,0-17.917,0c-1.18,0-1.386-.2-1.389-1.361q0-8.495,0-16.989c0-.242.019-.484.04-.958a25.656,25.656,0,0,1,2.043,1.562q8.153,7.676,16.266,15.4A28.911,28.911,0,0,1,2174.708,218.149Z" transform="translate(-152.974 -3.383)" fill="#8b929d"/>
      <path id="Path_16862" data-name="Path 16862" d="M2022.718,220.459v-.619h-1.02q-9.513,0-19.024,0a5.942,5.942,0,0,1-6.342-6.345q0-9.51,0-19.023h-31q-.248,0-.49.014a8.58,8.58,0,0,0-8.088,8.564c0,.172,0,.343.017.513,0,.12-.008.24-.008.362-.015,6.426,0,12.852,0,19.279q0,24.139,0,48.28a9.255,9.255,0,0,0,7.192,9.321,10.512,10.512,0,0,0,2.424.255q23.38.024,46.76.009a9.261,9.261,0,0,0,9.573-9.368Q2022.744,246.077,2022.718,220.459Zm-33.491,7.838q9.214,0,18.422,0a2.527,2.527,0,0,1,2.515,3.5,2.492,2.492,0,0,1-2.473,1.575q-3.3,0-6.591,0-14.957,0-29.912,0a5.142,5.142,0,0,1-1.091-.066,2.528,2.528,0,0,1,.626-5Q1979.976,228.285,1989.227,228.3Zm-6.537,32.133q-5.922.01-11.84,0a2.546,2.546,0,1,1,.048-5.07c1.973-.007,3.945,0,5.92,0,1.942,0,3.889,0,5.834,0a2.547,2.547,0,1,1,.039,5.07Zm27.462-15.073a2.565,2.565,0,0,1-2.58,1.548q-7.941-.014-15.884,0h-2.452q-9.209,0-18.419,0a2.532,2.532,0,0,1-2.529-3.489,2.491,2.491,0,0,1,2.47-1.582q3.083,0,6.167,0,15.337,0,30.674,0A2.535,2.535,0,0,1,2010.152,245.357Z" transform="translate(0)" fill="#8b929d"/>
    </g>
  </g>
</svg>
