<svg xmlns="http://www.w3.org/2000/svg" xmlns:xlink="http://www.w3.org/1999/xlink" width="91" height="90" viewBox="0 0 91 90">
  <defs>
    <clipPath id="clip-แดชบอร์ด_1">
      <rect width="91" height="90"/>
    </clipPath>
  </defs>
  <g id="แดชบอร์ด_1" data-name="แดชบอร์ด – 1" clip-path="url(#clip-แดชบอร์ด_1)">
    <g id="Group_20891" data-name="Group 20891" transform="translate(1.574 2.574)">
      <path id="Path_21939" data-name="Path 21939" d="M-374.25,150.347h48.123c-.02.361-.058.721-.058,1.082q0,20.28,0,40.559v1c-13.195.257-21.546,6.655-25.266,19.222H-374.24v-.939q0-6.62,0-13.24Q-374.245,174.187-374.25,150.347Zm9.6,30.641h28.085v-4.9h-28.085Zm22.4-15.8h-16.7V170.1h16.7Z" transform="translate(394.539 -150.347)" fill="#8b929d"/>
      <path id="Path_21940" data-name="Path 21940" d="M-234.78,401.479c-1.138-.248-2.294-.43-3.409-.755a19.125,19.125,0,0,1-13.839-19.611,19.214,19.214,0,0,1,16.178-17.662,19.173,19.173,0,0,1,21.873,16.52,3.462,3.462,0,0,0,.156.547v3.521c-.054.239-.121.475-.159.716-1.225,7.716-5.5,12.962-12.815,15.674a35.437,35.437,0,0,1-4.464,1.048Zm-.6-22.138v12.765h4.907V379.34Zm4.953-5.863a2.541,2.541,0,0,0-2.557-2.543,2.519,2.519,0,0,0-2.466,2.447,2.6,2.6,0,0,0,2.553,2.569A2.59,2.59,0,0,0-230.428,373.477Z" transform="translate(299.671 -315.628)" fill="#8b929d"/>
      <path id="Path_21941" data-name="Path 21941" d="M-449.2,150.347c.005.307.015.614.015.921q0,29.914,0,59.827v1.155c-1.531,0-2.976.044-4.418-.009a15.038,15.038,0,0,0-10.455,3.294c-.035.028-.1.017-.247.038v-.9q0-26.394,0-52.789c0-6.036,3.508-10.279,9.428-11.421a1.821,1.821,0,0,0,.31-.12Z" transform="translate(464.464 -150.347)" fill="#8b929d"/>
      <path id="Path_21942" data-name="Path 21942" d="M-465,457.317a11.753,11.753,0,0,1,1.8-4.363,9.207,9.207,0,0,1,7.582-3.966c10.978-.053,21.957-.022,32.935-.021a1.808,1.808,0,0,1,.259.028l1.058,7h-30.695v5.017h.964q15.63,0,31.259-.015a1.336,1.336,0,0,1,1.326.727,23.148,23.148,0,0,0,5.137,5.81c.189.155.352.343.527.515h-43.764a2.092,2.092,0,0,0-.384-.143,9.467,9.467,0,0,1-6.274-3.936,11.5,11.5,0,0,1-1.726-4.3Z" transform="translate(465 -382.198)" fill="#8b929d"/>
    </g>
  </g>
</svg>
