<svg xmlns="http://www.w3.org/2000/svg" xmlns:xlink="http://www.w3.org/1999/xlink" width="22" height="22" viewBox="0 0 22 22">
  <defs>
    <clipPath id="clip-help">
      <rect width="22" height="22"/>
    </clipPath>
  </defs>
  <g id="help" clip-path="url(#clip-help)">
    <g id="help_black_24dp" transform="translate(-1 -1)">
      <path id="Path_21936" data-name="Path 21936" d="M0,0H24V24H0Z" fill="none"/>
      <path id="Path_21937" data-name="Path 21937" d="M12,2A10,10,0,1,0,22,12,10,10,0,0,0,12,2Zm1,17H11V17h2Zm2.07-7.75-.9.92A3.4,3.4,0,0,0,13,15H11v-.5a4.025,4.025,0,0,1,1.17-2.83l1.24-1.26A1.955,1.955,0,0,0,14,9a2,2,0,0,0-4,0H8a4,4,0,0,1,8,0A3.182,3.182,0,0,1,15.07,11.25Z" fill="#2a2866"/>
    </g>
  </g>
</svg>
