<svg xmlns="http://www.w3.org/2000/svg" xmlns:xlink="http://www.w3.org/1999/xlink" width="21" height="22" viewBox="0 0 21 22">
  <defs>
    <clipPath id="clip-Lock">
      <rect width="21" height="22"/>
    </clipPath>
  </defs>
  <g id="Lock" clip-path="url(#clip-Lock)">
    <g id="lock_black_24dp_2_" data-name="lock_black_24dp (2)" transform="translate(0 0.001)">
      <g id="Group_12433" data-name="Group 12433">
        <path id="Path_16874" data-name="Path 16874" d="M0,0H21.506V21.506H0Z" fill="none"/>
        <path id="Path_16875" data-name="Path 16875" d="M0,0H21.506V21.506H0Z" fill="none" opacity="0.87"/>
      </g>
      <path id="Path_16876" data-name="Path 16876" d="M18.547,7.558H17.508V5.685A4.962,4.962,0,0,0,12.312,1a4.962,4.962,0,0,0-5.2,4.685V7.558H6.078A1.99,1.99,0,0,0,4,9.432V18.8a1.99,1.99,0,0,0,2.078,1.874H18.547A1.99,1.99,0,0,0,20.625,18.8V9.432A1.99,1.99,0,0,0,18.547,7.558Zm-6.234,8.432a1.99,1.99,0,0,1-2.078-1.874,1.99,1.99,0,0,1,2.078-1.874,1.99,1.99,0,0,1,2.078,1.874A1.99,1.99,0,0,1,12.312,15.991ZM9.2,7.558V5.685a2.972,2.972,0,0,1,3.117-2.811,2.972,2.972,0,0,1,3.117,2.811V7.558Z" transform="translate(-1.559 -0.39)" fill="#8b929d"/>
    </g>
  </g>
</svg>
