<svg xmlns="http://www.w3.org/2000/svg" xmlns:xlink="http://www.w3.org/1999/xlink" width="97" height="113" viewBox="0 0 97 113">
  <defs>
    <clipPath id="clip-Logo">
      <rect width="97" height="113"/>
    </clipPath>
  </defs>
  <g id="Logo" clip-path="url(#clip-Logo)">
    <g id="Final_-_Sponsor_2019_SAT_-_ENG-02" data-name="Final - Sponsor 2019 [SAT] - ENG-02" transform="translate(2 1)">
      <path id="Path_587" data-name="Path 587" d="M59.114,206.653a17.835,17.835,0,0,1-3.743-5.353H48.22a24,24,0,0,0,11.8,14.052A11.13,11.13,0,0,1,59.114,206.653Z" transform="translate(-47.175 -126.101)" fill="#eb2227"/>
      <path id="Path_588" data-name="Path 588" d="M92.429,145.257A23.622,23.622,0,0,0,75.923,128h0a23.592,23.592,0,0,0-25.029,37.427,11.059,11.059,0,0,1,3.076-7.658A16.881,16.881,0,0,1,80.5,138.035,22.884,22.884,0,0,0,92.429,145.257Z" transform="translate(-45.681 -82.418)" fill="#eb2227"/>
      <path id="Path_589" data-name="Path 589" d="M121.36,18.672a19.187,19.187,0,0,0-12.134,34.059,22.07,22.07,0,0,1,3-5.4,13.175,13.175,0,1,1,22.3-9.47,13.322,13.322,0,0,1-.07,1.355,13.138,13.138,0,0,1-15.271,11.631l-.222.264c-.074.091-.152.181-.226.276l-.313.412-.181.247c-.156.222-.3.453-.445.688l-.148.255c-.091.152-.181.309-.268.465l-.177.358-.194.387-.177.412q-.074.173-.148.358c-.058.144-.115.292-.169.445l-.115.333c-.054.161-.1.321-.152.482a.5.5,0,0,1-.033.124A19.2,19.2,0,1,0,121.36,18.66Z" transform="translate(-78.906 -18.66)" fill="#fedd10"/>
      <path id="Path_590" data-name="Path 590" d="M166.966,74.53q-.049.366-.111.729a19.034,19.034,0,0,1-2.108,5.929A14.777,14.777,0,1,1,146.19,104.1a24.268,24.268,0,0,1,5.353,10.265A21.591,21.591,0,0,0,166.954,74.53Z" transform="translate(-104.807 -51.526)" fill="#2a2866"/>
      <path id="Path_591" data-name="Path 591" d="M140.258,74.5a13.938,13.938,0,0,1,1.5.078,13.139,13.139,0,0,0,2.549-6.522,21.822,21.822,0,0,0-4.047-.379A21.591,21.591,0,0,0,118.91,86.04h.478a8.877,8.877,0,0,1,6.122,2.437A14.769,14.769,0,0,1,140.258,74.5Z" transform="translate(-88.759 -47.497)" fill="#2a2866"/>
      <line id="Line_1" data-name="Line 1" x1="0.111" y1="0.441" transform="translate(18.639 96.086)" fill="#2a2866"/>
      <path id="Path_592" data-name="Path 592" d="M161.1,200.42h-4.661l-15.3,23.469-.338.465h7.358l9.606-15.93,3.368,8.362h-6.518c-3.092,0-4.941,4.611-4.941,4.611h13.348l1.235,2.952h6.555L164.9,209.939Z" transform="translate(-101.636 -125.583)" fill="#2a2866"/>
      <path id="Path_593" data-name="Path 593" d="M204,205.827h7.411v18.623h6.275V208.161a2.378,2.378,0,0,0-1.149-2.335h7.576c3.491,0,4.492-2.528,4.772-5.287H205.54Z" transform="translate(-138.815 -125.654)" fill="#2a2866"/>
      <path id="Path_594" data-name="Path 594" d="M97.975,205.644H79.735a2.026,2.026,0,0,0-1.865,1.523,1.165,1.165,0,0,0,1.153,1.528H92.239v.025c3.574.066,5.764,3.03,4.941,6.67l-.552,2.367a8.912,8.912,0,0,1-8.169,6.674H64.41l1.787-5.587H88.781a2.085,2.085,0,0,0,1.8-1.474l.366-.98a1.12,1.12,0,0,0-1.112-1.47H80.9V214.9H76.256c-3.673,0-5.534-4-4.669-7.712a8.969,8.969,0,0,1,8.235-6.724H104.55S102.7,205.644,97.975,205.644Z" transform="translate(-56.699 -125.607)" fill="#2a2866"/>
      <path id="Path_595" data-name="Path 595" d="M117.928,178.255a3.9,3.9,0,1,1-3.9-3.9,3.9,3.9,0,0,1,3.9,3.9Z" transform="translate(-83.594 -110.253)" fill="#2a2866"/>
      <path id="Path_596" data-name="Path 596" d="M64.382,274.219a.663.663,0,0,0,0,.338.445.445,0,0,0,.14.227.6.6,0,0,0,.251.123,1.2,1.2,0,0,0,.329.041,1.915,1.915,0,0,0,.255,0,1.242,1.242,0,0,0,.268-.07.771.771,0,0,0,.222-.136.441.441,0,0,0,.128-.235.276.276,0,0,0-.049-.243.649.649,0,0,0-.231-.173,2.184,2.184,0,0,0-.358-.136l-.412-.124-.317-.1a2.634,2.634,0,0,1-.313-.132,1.564,1.564,0,0,1-.276-.173.9.9,0,0,1-.21-.227.79.79,0,0,1-.115-.292,1.046,1.046,0,0,1,0-.371,1.369,1.369,0,0,1,.161-.412,1.409,1.409,0,0,1,.264-.333,1.543,1.543,0,0,1,.35-.251,2.589,2.589,0,0,1,.412-.177,2.622,2.622,0,0,1,.449-.1,2.916,2.916,0,0,1,.465-.033,2.7,2.7,0,0,1,.7.082,1.379,1.379,0,0,1,.535.255.906.906,0,0,1,.3.445,1.292,1.292,0,0,1,0,.655H66.223a.593.593,0,0,0,0-.276.379.379,0,0,0-.119-.181.572.572,0,0,0-.214-.1,1.235,1.235,0,0,0-.288-.029,1.067,1.067,0,0,0-.231.021.725.725,0,0,0-.2.062.5.5,0,0,0-.156.12.412.412,0,0,0-.086.185.243.243,0,0,0,0,.152.325.325,0,0,0,.14.144,1.6,1.6,0,0,0,.333.156c.148.058.346.124.593.194l.206.058a2.43,2.43,0,0,1,.268.1,1.633,1.633,0,0,1,.284.156.961.961,0,0,1,.239.227.927.927,0,0,1,.14.325,1.008,1.008,0,0,1,0,.441,1.667,1.667,0,0,1-.243.576,1.592,1.592,0,0,1-.445.424,2.272,2.272,0,0,1-.663.288,3.47,3.47,0,0,1-.869.1,2.814,2.814,0,0,1-.5-.045,2.035,2.035,0,0,1-.441-.128,1.384,1.384,0,0,1-.354-.218,1.086,1.086,0,0,1-.243-.309,1.127,1.127,0,0,1-.115-.412,1.622,1.622,0,0,1,.041-.494Z" transform="translate(-56.017 -167.238)" fill="#2a2866"/>
      <path id="Path_597" data-name="Path 597" d="M74.04,274.482a1.154,1.154,0,0,1,.218-.169.872.872,0,0,1,.235-.111,1.275,1.275,0,0,1,.247-.062,1.9,1.9,0,0,1,.268-.021,1.372,1.372,0,0,1,.622.132.96.96,0,0,1,.412.362,1.2,1.2,0,0,1,.181.544,2.058,2.058,0,0,1-.045.679,2.257,2.257,0,0,1-.243.659,2.059,2.059,0,0,1-.412.527,1.828,1.828,0,0,1-.552.342,1.7,1.7,0,0,1-.663.128h-.218a1.4,1.4,0,0,1-.218-.054.887.887,0,0,1-.2-.1.856.856,0,0,1-.169-.156l-.3,1.416H72.15l.926-4.389h1.013Zm-.272,1.338a2.54,2.54,0,0,1-.041.255,1.6,1.6,0,0,0,0,.239,1.067,1.067,0,0,0,.008.226.457.457,0,0,0,.091.165.351.351,0,0,0,.152.107.524.524,0,0,0,.222.041.709.709,0,0,0,.354-.091.883.883,0,0,0,.255-.239,1.406,1.406,0,0,0,.181-.329,2.467,2.467,0,0,0,.107-.366,1.613,1.613,0,0,0,.041-.366,1,1,0,0,0-.058-.329.553.553,0,0,0-.165-.239.412.412,0,0,0-.284-.091.654.654,0,0,0-.338.086.891.891,0,0,0-.251.23,1.332,1.332,0,0,0-.181.329A2.09,2.09,0,0,0,73.768,275.82Z" transform="translate(-61.252 -168.938)" fill="#2a2866"/>
      <path id="Path_598" data-name="Path 598" d="M82.17,275.829a2.3,2.3,0,0,1,.276-.7,1.961,1.961,0,0,1,.461-.527,2.029,2.029,0,0,1,.618-.333,2.289,2.289,0,0,1,.741-.115,1.941,1.941,0,0,1,.7.115,1.087,1.087,0,0,1,.708.861,1.8,1.8,0,0,1-.029.7,2.289,2.289,0,0,1-.292.729,2.058,2.058,0,0,1-.465.527,2,2,0,0,1-.622.329,2.289,2.289,0,0,1-.741.115,1.965,1.965,0,0,1-.692-.111,1.206,1.206,0,0,1-.473-.329,1.087,1.087,0,0,1-.239-.531A1.824,1.824,0,0,1,82.17,275.829Zm1.062,0a1.756,1.756,0,0,0-.037.354.888.888,0,0,0,.058.3.444.444,0,0,0,.161.214.493.493,0,0,0,.3.078.7.7,0,0,0,.325-.074.911.911,0,0,0,.259-.21,1.116,1.116,0,0,0,.185-.3,1.546,1.546,0,0,0,.115-.362,1.814,1.814,0,0,0,.045-.354.875.875,0,0,0-.049-.3.457.457,0,0,0-.169-.214.535.535,0,0,0-.309-.078.638.638,0,0,0-.321.078.9.9,0,0,0-.255.214,1.407,1.407,0,0,0-.189.3A1.779,1.779,0,0,0,83.232,275.829Z" transform="translate(-67.109 -168.955)" fill="#2a2866"/>
      <path id="Path_599" data-name="Path 599" d="M92.3,274.251l-.07.342a1.7,1.7,0,0,1,.49-.3,1.505,1.505,0,0,1,.6-.1l-.189.9a1.33,1.33,0,0,0-.5.058.851.851,0,0,0-.346.206.954.954,0,0,0-.214.321,2.009,2.009,0,0,0-.124.412l-.288,1.375H90.6l.675-3.191Z" transform="translate(-72.105 -168.979)" fill="#2a2866"/>
      <path id="Path_600" data-name="Path 600" d="M98.983,272.969l-.136.63h-.412l-.342,1.6a.311.311,0,0,0,0,.062.1.1,0,0,0,0,.062.082.082,0,0,0,.045.045.161.161,0,0,0,.082.021h.325l-.165.77h-.539a2.131,2.131,0,0,1-.412-.033.618.618,0,0,1-.288-.119.412.412,0,0,1-.144-.243.96.96,0,0,1,0-.412l.375-1.77h-.3l.136-.63h.313l.2-.943h1.054l-.2.943Z" transform="translate(-75.856 -167.697)" fill="#2a2866"/>
      <path id="Path_601" data-name="Path 601" d="M102.163,276.45a.44.44,0,0,0,0,.222.3.3,0,0,0,.1.144.413.413,0,0,0,.165.078.821.821,0,0,0,.206.025,1.225,1.225,0,0,0,.177,0,.649.649,0,0,0,.165-.058.487.487,0,0,0,.132-.107.412.412,0,0,0,.078-.161.21.21,0,0,0-.025-.144.362.362,0,0,0-.14-.111,1.494,1.494,0,0,0-.255-.091l-.383-.095a1.738,1.738,0,0,1-.239-.066,1.467,1.467,0,0,1-.235-.091,1.088,1.088,0,0,1-.2-.119.719.719,0,0,1-.156-.161.671.671,0,0,1-.082-.2.646.646,0,0,1,0-.251,1.149,1.149,0,0,1,.14-.362,1.2,1.2,0,0,1,.218-.272,1.3,1.3,0,0,1,.284-.185,1.847,1.847,0,0,1,.329-.119,2.451,2.451,0,0,1,.354-.062,3.506,3.506,0,0,1,.358,0,2.6,2.6,0,0,1,.362.021,1.9,1.9,0,0,1,.325.066,1.177,1.177,0,0,1,.272.128.72.72,0,0,1,.2.189.67.67,0,0,1,.111.259,1.034,1.034,0,0,1,0,.342h-1a.276.276,0,0,0-.086-.276.589.589,0,0,0-.342-.082.884.884,0,0,0-.148,0,.41.41,0,0,0-.132.041.319.319,0,0,0-.107.07.194.194,0,0,0-.054.1.165.165,0,0,0,.033.152.5.5,0,0,0,.169.111,2.019,2.019,0,0,0,.264.082l.333.082.247.07a1.416,1.416,0,0,1,.231.095,1.12,1.12,0,0,1,.2.128.582.582,0,0,1,.152.165.519.519,0,0,1,.078.21.7.7,0,0,1,0,.259,1.33,1.33,0,0,1-.14.391,1.2,1.2,0,0,1-.523.5,1.9,1.9,0,0,1-.342.132,2.228,2.228,0,0,1-.375.066,3.094,3.094,0,0,1-.412.021,2.891,2.891,0,0,1-.379-.025,1.772,1.772,0,0,1-.346-.078,1.276,1.276,0,0,1-.292-.14.754.754,0,0,1-.325-.5,1.047,1.047,0,0,1,0-.375Z" transform="translate(-78.287 -169.02)" fill="#2a2866"/>
      <path id="Path_602" data-name="Path 602" d="M115.323,274.849h-1.458l-.548.976H112.14l2.582-4.385h1.2l.729,4.385h-1.2Zm-1.054-.708h.955l-.181-1.359Z" transform="translate(-84.777 -167.362)" fill="#2a2866"/>
      <path id="Path_603" data-name="Path 603" d="M127.212,277.513h-1l.054-.259a1.233,1.233,0,0,1-.478.272,1.4,1.4,0,0,1-.251.062,1.751,1.751,0,0,1-.251,0,1.387,1.387,0,0,1-.568-.095.7.7,0,0,1-.329-.268.824.824,0,0,1-.124-.412,2.148,2.148,0,0,1,.049-.543l.412-1.96h1.058l-.383,1.8a1.049,1.049,0,0,0,0,.556.3.3,0,0,0,.321.181.66.66,0,0,0,.276-.058.649.649,0,0,0,.214-.136,1.049,1.049,0,0,0,.161-.268,2.028,2.028,0,0,0,.111-.366l.358-1.676h1.062Z" transform="translate(-91.91 -169.05)" fill="#2a2866"/>
      <path id="Path_604" data-name="Path 604" d="M135.358,272.969l-.136.63h-.412l-.342,1.6a.311.311,0,0,0,0,.062.135.135,0,0,0,0,.062.1.1,0,0,0,.049.045.153.153,0,0,0,.082.021h.325l-.165.77h-.556a2.131,2.131,0,0,1-.412-.033.618.618,0,0,1-.288-.119.412.412,0,0,1-.144-.243.96.96,0,0,1,.021-.412l.375-1.77h-.313l.136-.63h.313l.2-.943h1.054l-.2.943Z" transform="translate(-97.252 -167.697)" fill="#2a2866"/>
      <path id="Path_605" data-name="Path 605" d="M138.4,271.44h1.013l-.313,1.474a1.539,1.539,0,0,1,.247-.177,1.272,1.272,0,0,1,.494-.173,1.551,1.551,0,0,1,.239-.021,1.413,1.413,0,0,1,.572.1.708.708,0,0,1,.334.268.885.885,0,0,1,.128.412,1.964,1.964,0,0,1-.054.539l-.412,1.96h-1.062l.379-1.8a2.837,2.837,0,0,0,.053-.342.556.556,0,0,0-.021-.231.231.231,0,0,0-.115-.132.5.5,0,0,0-.222-.041.622.622,0,0,0-.482.222,1.4,1.4,0,0,0-.3.663l-.346,1.647H137.47Z" transform="translate(-99.678 -167.362)" fill="#2a2866"/>
      <path id="Path_606" data-name="Path 606" d="M146.613,275.829a2.417,2.417,0,0,1,.276-.7,2.005,2.005,0,0,1,1.083-.861,2.285,2.285,0,0,1,.737-.115,1.911,1.911,0,0,1,.7.115,1.161,1.161,0,0,1,.478.333,1.125,1.125,0,0,1,.235.527,1.808,1.808,0,0,1-.033.7,2.186,2.186,0,0,1-.272.708,1.991,1.991,0,0,1-.469.527,1.935,1.935,0,0,1-.618.329,2.291,2.291,0,0,1-.741.115,1.966,1.966,0,0,1-.692-.111,1.234,1.234,0,0,1-.478-.329,1.12,1.12,0,0,1-.235-.531A1.9,1.9,0,0,1,146.613,275.829Zm1.062,0a1.751,1.751,0,0,0-.033.354.9.9,0,0,0,.054.3.478.478,0,0,0,.165.214.49.49,0,0,0,.292.078.715.715,0,0,0,.329-.074.952.952,0,0,0,.255-.21,1.032,1.032,0,0,0,.189-.3,1.769,1.769,0,0,0,.115-.362,1.8,1.8,0,0,0,.041-.354.721.721,0,0,0-.049-.3.449.449,0,0,0-.165-.214.543.543,0,0,0-.313-.078.634.634,0,0,0-.317.078.843.843,0,0,0-.255.214,1.148,1.148,0,0,0-.189.3A1.79,1.79,0,0,0,147.675,275.829Z" transform="translate(-105.029 -168.955)" fill="#2a2866"/>
      <path id="Path_607" data-name="Path 607" d="M156.713,274.251l-.074.342a1.673,1.673,0,0,1,.494-.3,1.5,1.5,0,0,1,.593-.1l-.189.9a1.339,1.339,0,0,0-.5.058.865.865,0,0,0-.342.206,1.03,1.03,0,0,0-.218.321,2.784,2.784,0,0,0-.124.412l-.284,1.375H155l.675-3.191Z" transform="translate(-109.99 -168.979)" fill="#2a2866"/>
      <path id="Path_608" data-name="Path 608" d="M162.463,272.61l-.671,3.191H160.73l.675-3.191Zm-.976-.387.169-.823h1.062l-.173.823Z" transform="translate(-113.361 -167.338)" fill="#2a2866"/>
      <path id="Path_609" data-name="Path 609" d="M167.28,272.969l-.132.63h-.412l-.342,1.6a.316.316,0,0,0,0,.062.136.136,0,0,0,0,.062.082.082,0,0,0,.045.045.16.16,0,0,0,.082.021h.325l-.165.77h-.556a2.16,2.16,0,0,1-.412-.033.633.633,0,0,1-.288-.119.412.412,0,0,1-.14-.243.947.947,0,0,1,0-.412l.379-1.77h-.317l.136-.63h.317l.2-.943h1.05l-.2.943Z" transform="translate(-116.028 -167.697)" fill="#2a2866"/>
      <path id="Path_610" data-name="Path 610" d="M171.058,278.06a1.533,1.533,0,0,1-.251.338,1.266,1.266,0,0,1-.309.226,1.486,1.486,0,0,1-.366.132,2.029,2.029,0,0,1-.432.041h-.268l-.272-.025.161-.791.259.029a1.781,1.781,0,0,0,.255,0,.382.382,0,0,0,.2-.074.413.413,0,0,0,.119-.144.566.566,0,0,0,.054-.185.637.637,0,0,0,0-.2l-.474-3.059h1.1l.218,2.013,1.07-2.013h1.083Z" transform="translate(-118.32 -169.074)" fill="#2a2866"/>
      <path id="Path_611" data-name="Path 611" d="M181.991,275.829a2.306,2.306,0,0,1,.276-.7,2.033,2.033,0,0,1,.461-.527,2.1,2.1,0,0,1,.622-.333,2.248,2.248,0,0,1,.737-.115,1.927,1.927,0,0,1,.7.115,1.16,1.16,0,0,1,.478.333,1.125,1.125,0,0,1,.235.527,1.89,1.89,0,0,1-.033.7,2.191,2.191,0,0,1-.276.708,1.906,1.906,0,0,1-.465.527,1.958,1.958,0,0,1-.622.329,2.292,2.292,0,0,1-.741.115,1.927,1.927,0,0,1-.688-.111,1.194,1.194,0,0,1-.478-.329,1.124,1.124,0,0,1-.235-.511A1.907,1.907,0,0,1,181.991,275.829Zm1.062,0a1.5,1.5,0,0,0-.033.354.823.823,0,0,0,.054.3.448.448,0,0,0,.165.214.481.481,0,0,0,.292.078.7.7,0,0,0,.325-.074.911.911,0,0,0,.259-.21,1.232,1.232,0,0,0,.189-.3,2.055,2.055,0,0,0,.115-.362,1.808,1.808,0,0,0,.041-.354.722.722,0,0,0-.049-.3.437.437,0,0,0-.169-.214.52.52,0,0,0-.309-.078.65.65,0,0,0-.321.078.894.894,0,0,0-.255.214,1.413,1.413,0,0,0-.189.3A2.1,2.1,0,0,0,183.053,275.829Z" transform="translate(-125.839 -168.955)" fill="#2a2866"/>
      <path id="Path_612" data-name="Path 612" d="M191.026,273.185l.132-.63h.317l.07-.358a1.041,1.041,0,0,1,.412-.671,1.5,1.5,0,0,1,.848-.218h.251l.132.029a.717.717,0,0,1,.132.049l-.144.7a.865.865,0,0,0-.2-.049.587.587,0,0,0-.144,0,.235.235,0,0,0-.136.066.374.374,0,0,0-.082.148l-.062.288h.412l-.136.63h-.412l-.539,2.561H190.8l.539-2.561Z" transform="translate(-131.05 -167.283)" fill="#2a2866"/>
      <path id="Path_613" data-name="Path 613" d="M200.17,272.321l.185-.881h3.492l-.189.881h-1.186l-.725,3.5h-1.132l.737-3.5Z" transform="translate(-136.562 -167.362)" fill="#2a2866"/>
      <path id="Path_614" data-name="Path 614" d="M208.472,271.44h1.017l-.313,1.466a1.447,1.447,0,0,1,.494-.292,1.377,1.377,0,0,1,.243-.058,1.611,1.611,0,0,1,.243-.021,1.412,1.412,0,0,1,.572.1.75.75,0,0,1,.333.268.823.823,0,0,1,.124.412,2.117,2.117,0,0,1-.049.539l-.412,1.96h-1.058l.375-1.8a2.952,2.952,0,0,0,.058-.342.547.547,0,0,0-.025-.231.206.206,0,0,0-.115-.132.476.476,0,0,0-.222-.041.634.634,0,0,0-.482.222,1.4,1.4,0,0,0-.292.663l-.35,1.647H207.55Z" transform="translate(-140.903 -167.362)" fill="#2a2866"/>
      <path id="Path_615" data-name="Path 615" d="M218.478,277.135a1,1,0,0,1-.272.185,1.58,1.58,0,0,1-.3.119,1.649,1.649,0,0,1-.309.066,2.616,2.616,0,0,1-.3,0,1.355,1.355,0,0,1-.412-.058.844.844,0,0,1-.329-.177.639.639,0,0,1-.189-.3.889.889,0,0,1,0-.432,1.062,1.062,0,0,1,.119-.317.94.94,0,0,1,.181-.235.971.971,0,0,1,.231-.161,1.642,1.642,0,0,1,.263-.111c.095-.029.185-.054.28-.074l.284-.049.379-.062a1.651,1.651,0,0,0,.309-.082.68.68,0,0,0,.218-.119.313.313,0,0,0,.107-.194.455.455,0,0,0,0-.189.2.2,0,0,0-.062-.119.3.3,0,0,0-.132-.062.955.955,0,0,0-.2,0,1.022,1.022,0,0,0-.23.025.549.549,0,0,0-.194.087.522.522,0,0,0-.148.152.692.692,0,0,0-.1.222h-.951a1.184,1.184,0,0,1,.165-.366,1.234,1.234,0,0,1,.247-.28,1.552,1.552,0,0,1,.309-.206,2.251,2.251,0,0,1,.35-.132,2.754,2.754,0,0,1,.367-.074c.123,0,.243-.021.358-.021h.325a2.017,2.017,0,0,1,.321.049,1.239,1.239,0,0,1,.288.095.679.679,0,0,1,.218.165.507.507,0,0,1,.124.243.768.768,0,0,1,0,.333l-.333,1.585a.2.2,0,0,0,0,.115.065.065,0,0,0,.058.033.218.218,0,0,0,.1-.029.607.607,0,0,0,.111-.078l-.144.684a1.164,1.164,0,0,1-.156.082l-.152.049a.947.947,0,0,1-.148.025h-.144a.673.673,0,0,1-.189-.029.472.472,0,0,1-.156-.082.326.326,0,0,1-.107-.128A.366.366,0,0,1,218.478,277.135Zm.058-1.1a.569.569,0,0,1-.136.082l-.152.058-.177.041-.2.045-.181.045a.56.56,0,0,0-.14.049.268.268,0,0,0-.1.078.235.235,0,0,0-.058.115.522.522,0,0,0,0,.177.2.2,0,0,0,.054.119.275.275,0,0,0,.119.062.785.785,0,0,0,.181,0,.857.857,0,0,0,.268-.037.783.783,0,0,0,.194-.1.623.623,0,0,0,.136-.14,1.148,1.148,0,0,0,.082-.156.85.85,0,0,0,.054-.152.76.76,0,0,1,.025-.119Z" transform="translate(-146.071 -168.968)" fill="#2a2866"/>
      <path id="Path_616" data-name="Path 616" d="M226.463,272.61l-.671,3.191H224.73l.675-3.191Zm-.98-.387.173-.823h1.062l-.173.823Z" transform="translate(-151.01 -167.338)" fill="#2a2866"/>
      <path id="Path_617" data-name="Path 617" d="M230.6,271.44l-.926,4.385h-1.05l.926-4.385Z" transform="translate(-153.298 -167.362)" fill="#2a2866"/>
      <path id="Path_618" data-name="Path 618" d="M234.528,277.135a1,1,0,0,1-.272.185,1.692,1.692,0,0,1-.3.119,1.648,1.648,0,0,1-.313.066,2.553,2.553,0,0,1-.3,0,1.4,1.4,0,0,1-.412-.058.825.825,0,0,1-.325-.177.681.681,0,0,1-.194-.3.894.894,0,0,1,0-.432,1,1,0,0,1,.3-.552.971.971,0,0,1,.231-.161,1.642,1.642,0,0,1,.263-.111c.091-.029.185-.054.28-.074l.28-.049.383-.062a1.871,1.871,0,0,0,.309-.082.73.73,0,0,0,.218-.119.357.357,0,0,0,.107-.193.538.538,0,0,0,0-.189.2.2,0,0,0-.062-.119.3.3,0,0,0-.136-.062.907.907,0,0,0-.2,0,.986.986,0,0,0-.226.025.519.519,0,0,0-.194.087.593.593,0,0,0-.152.152.791.791,0,0,0-.1.222h-.955a1.412,1.412,0,0,1,.165-.366,1.368,1.368,0,0,1,.251-.28,1.551,1.551,0,0,1,.309-.206,1.97,1.97,0,0,1,.35-.132,2.7,2.7,0,0,1,.362-.074c.124,0,.247-.021.362-.021h.321a2.15,2.15,0,0,1,.325.049,1.321,1.321,0,0,1,.288.095.679.679,0,0,1,.218.165.543.543,0,0,1,.124.243.823.823,0,0,1,0,.333l-.317,1.6a.177.177,0,0,0,0,.115.066.066,0,0,0,.062.033.2.2,0,0,0,.095-.029.824.824,0,0,0,.115-.078l-.148.684a.957.957,0,0,1-.157.082l-.148.049a.927.927,0,0,1-.148.025h-.148a.732.732,0,0,1-.189-.029.516.516,0,0,1-.156-.082.409.409,0,0,1-.107-.128A.365.365,0,0,1,234.528,277.135Zm.054-1.1a.543.543,0,0,1-.132.082l-.152.058-.177.041-.2.045-.185.045a.617.617,0,0,0-.14.05.361.361,0,0,0-.1.078.273.273,0,0,0-.053.115.536.536,0,0,0,0,.177.23.23,0,0,0,.058.119.254.254,0,0,0,.119.062.779.779,0,0,0,.181,0,.874.874,0,0,0,.268-.037.784.784,0,0,0,.194-.1.531.531,0,0,0,.132-.14.86.86,0,0,0,.086-.156,1.294,1.294,0,0,0,.049-.152.459.459,0,0,1,.029-.119Z" transform="translate(-155.513 -168.968)" fill="#2a2866"/>
      <path id="Path_619" data-name="Path 619" d="M241.345,274.209h1.013l-.062.288a1.855,1.855,0,0,1,.243-.181,1.641,1.641,0,0,1,.243-.115,1.358,1.358,0,0,1,.247-.062,1.638,1.638,0,0,1,.247-.021,1.412,1.412,0,0,1,.572.1.749.749,0,0,1,.333.268.823.823,0,0,1,.124.412,1.947,1.947,0,0,1-.049.539l-.412,1.96h-1.062l.379-1.8a2.132,2.132,0,0,0,.049-.342.532.532,0,0,0-.029-.226.243.243,0,0,0-.119-.128.468.468,0,0,0-.218-.041.689.689,0,0,0-.268.049.556.556,0,0,0-.214.152.892.892,0,0,0-.165.268,2.336,2.336,0,0,0-.119.391l-.346,1.672H240.67Z" transform="translate(-160.387 -168.937)" fill="#2a2866"/>
      <path id="Path_620" data-name="Path 620" d="M251.958,275.534a1.235,1.235,0,0,1-.457.28,1.677,1.677,0,0,1-.523.078,1.341,1.341,0,0,1-.618-.128,1.046,1.046,0,0,1-.412-.362,1.347,1.347,0,0,1-.181-.544,2.314,2.314,0,0,1,.041-.683,2.357,2.357,0,0,1,.243-.655,2.1,2.1,0,0,1,.412-.531,1.929,1.929,0,0,1,.552-.35,1.75,1.75,0,0,1,.659-.128,2.063,2.063,0,0,1,.222,0,1,1,0,0,1,.218.054,1.02,1.02,0,0,1,.2.1.672.672,0,0,1,.169.156l.3-1.42h1.062l-.926,4.385h-1Zm.272-1.338a1.886,1.886,0,0,1,.041-.259,1.569,1.569,0,0,0,0-.239.793.793,0,0,0-.037-.206.481.481,0,0,0-.086-.165.472.472,0,0,0-.152-.111.607.607,0,0,0-.226-.037.676.676,0,0,0-.354.09.953.953,0,0,0-.259.239,1.382,1.382,0,0,0-.181.325,3.158,3.158,0,0,0-.111.371,1.692,1.692,0,0,0-.033.247,1.537,1.537,0,0,0,0,.239.871.871,0,0,0,.045.21.7.7,0,0,0,.095.173.45.45,0,0,0,.148.115.521.521,0,0,0,.206.041.636.636,0,0,0,.334-.086.857.857,0,0,0,.255-.235,1.327,1.327,0,0,0,.181-.329A2.439,2.439,0,0,0,252.229,274.2Z" transform="translate(-165.733 -167.338)" fill="#2a2866"/>
    </g>
  </g>
</svg>
