<svg xmlns="http://www.w3.org/2000/svg" xmlns:xlink="http://www.w3.org/1999/xlink" width="174" height="177" viewBox="0 0 174 177">
  <defs>
    <clipPath id="clip-user">
      <rect width="174" height="177"/>
    </clipPath>
  </defs>
  <g id="user" clip-path="url(#clip-user)">
    <g id="Group_20597" data-name="Group 20597" transform="translate(-901 -435.482)">
      <g id="Group_20595" data-name="Group 20595" transform="translate(904 439)">
        <g id="Ellipse_1652" data-name="Ellipse 1652" transform="translate(0 0.482)" fill="rgba(169,168,193,0.15)" stroke="#cdd0e3" stroke-width="1">
          <circle cx="84" cy="84" r="84" stroke="none"/>
          <circle cx="84" cy="84" r="83.5" fill="none"/>
        </g>
      </g>
      <g id="Group_20596" data-name="Group 20596" transform="translate(948.722 474.926)" opacity="0.4">
        <path id="Path_16857" data-name="Path 16857" d="M1992.576,194.47l-.037.014c.165-.009.33-.014.5-.014Z" transform="translate(-1977.726 -181.553)" fill="#2a2866"/>
        <path id="Path_16859" data-name="Path 16859" d="M2049.527,407.634a2.6,2.6,0,0,1-2.615,1.569q-8.05-.014-16.1,0h-2.484q-9.334,0-18.67,0a2.566,2.566,0,0,1-2.563-3.536,2.525,2.525,0,0,1,2.5-1.6q3.126,0,6.25,0,15.545,0,31.089,0A2.57,2.57,0,0,1,2049.527,407.634Z" transform="translate(-1988.785 -343.14)" fill="#2a2866"/>
        <path id="Path_16860" data-name="Path 16860" d="M2024.543,466.486a2.625,2.625,0,0,1-2.815,2.59q-6,.01-12,0a2.581,2.581,0,1,1,.049-5.139c2-.007,4,0,6,0,1.969,0,3.941,0,5.912,0A2.633,2.633,0,0,1,2024.543,466.486Z" transform="translate(-1988.82 -389.305)" fill="#2a2866"/>
        <g id="Group_19197" data-name="Group 19197" transform="translate(0 0)">
          <path id="Path_21849" data-name="Path 21849" d="M971.76,232.215q-11.253,0-22.505,0a17.719,17.719,0,0,1-10.671-3.037,14.037,14.037,0,0,1-6.133-10.539,49.391,49.391,0,0,1,3.19-22.883c1.756-4.373,4.384-8.14,8.7-10.452a17.358,17.358,0,0,1,8.625-2.086,6.609,6.609,0,0,1,2.839.961c1.432.78,2.757,1.754,4.151,2.609q11.87,7.286,23.725-.04c1.1-.682,2.224-1.343,3.26-2.116a7.918,7.918,0,0,1,6.236-1.287c6.152.9,10.506,4.262,13.44,9.637a39.663,39.663,0,0,1,4.327,15.383,74.9,74.9,0,0,1,.364,8.224c-.1,8.455-5.767,14.581-14.183,15.453a30.211,30.211,0,0,1-3.046.163Q982.92,232.228,971.76,232.215Z" transform="translate(-932.242 -135.555)" fill="#2a2866"/>
          <circle id="Ellipse_1648" data-name="Ellipse 1648" cx="23.402" cy="23.402" r="23.402" transform="translate(16.135)" fill="#2a2866"/>
        </g>
      </g>
    </g>
  </g>
</svg>
