<svg xmlns="http://www.w3.org/2000/svg" xmlns:xlink="http://www.w3.org/1999/xlink" width="30" height="38" viewBox="0 0 30 38">
  <defs>
    <clipPath id="clip-อยู่ระหว่างการแนบหลักฐาน">
      <rect width="30" height="38"/>
    </clipPath>
  </defs>
  <g id="อยู่ระหว่างการแนบหลักฐาน" clip-path="url(#clip-อยู่ระหว่างการแนบหลักฐาน)">
    <g id="Group_12406" data-name="Group 12406" transform="translate(2 1)">
      <path id="Path_16851" data-name="Path 16851" d="M1992.555,194.47l-.015.005c.066,0,.132-.005.2-.005Z" transform="translate(-1989.27 -194.47)" fill="#fedd10"/>
      <path id="Path_16852" data-name="Path 16852" d="M2023.926,345.585a1.007,1.007,0,0,1-1,.637h-14.761a2.079,2.079,0,0,1-.441-.026,1.022,1.022,0,0,1,.253-2.022q3.741-.007,7.483,0,3.725,0,7.449,0A1.022,1.022,0,0,1,2023.926,345.585Z" transform="translate(-2002.326 -330.491)" fill="#fff"/>
      <path id="Path_16853" data-name="Path 16853" d="M2023.9,405.483a1.038,1.038,0,0,1-1.044.626q-3.211-.005-6.423,0h-.991q-3.724,0-7.448,0a1.024,1.024,0,0,1-1.023-1.411,1.007,1.007,0,0,1,1-.64h2.494q6.2,0,12.4,0A1.025,1.025,0,0,1,2023.9,405.483Z" transform="translate(-2002.302 -384.905)" fill="#fff"/>
      <path id="Path_16854" data-name="Path 16854" d="M2013.957,464.952a1.047,1.047,0,0,1-1.123,1.033q-2.394,0-4.788,0a1.03,1.03,0,1,1,.019-2.05c.8,0,1.6,0,2.394,0s1.572,0,2.359,0A1.05,1.05,0,0,1,2013.957,464.952Z" transform="translate(-2002.345 -439.312)" fill="#fff"/>
      <path id="Path_16855" data-name="Path 16855" d="M2162.6,206.649h-7.659c-.477,0-.561-.082-.561-.55q0-3.435,0-6.87c0-.1.008-.2.016-.387a10.3,10.3,0,0,1,.826.632q3.3,3.1,6.577,6.226A11.781,11.781,0,0,1,2162.6,206.649Z" transform="translate(-2136.322 -198.442)" fill="#fedd10"/>
      <path id="Path_16856" data-name="Path 16856" d="M1983.426,204.98v-.25h-.412q-3.847,0-7.693,0a2.4,2.4,0,0,1-2.564-2.566q0-3.846,0-7.693h-12.538c-.067,0-.132,0-.2.005a3.469,3.469,0,0,0-3.27,3.463c0,.069,0,.139.006.207,0,.048,0,.1,0,.146-.006,2.6,0,5.2,0,7.8q0,9.761,0,19.523a3.743,3.743,0,0,0,2.909,3.769,4.25,4.25,0,0,0,.98.1q9.454.01,18.908,0a3.746,3.746,0,0,0,3.872-3.788Q1983.437,215.339,1983.426,204.98Zm-13.543,3.17q3.725,0,7.449,0a1.022,1.022,0,0,1,1.017,1.414,1.008,1.008,0,0,1-1,.637h-14.761a2.079,2.079,0,0,1-.441-.027,1.022,1.022,0,0,1,.253-2.022Q1966.142,208.144,1969.883,208.149Zm-2.644,12.994q-2.394,0-4.788,0a1.03,1.03,0,1,1,.019-2.05c.8,0,1.6,0,2.394,0s1.572,0,2.359,0a1.03,1.03,0,1,1,.015,2.05Zm11.105-6.1a1.037,1.037,0,0,1-1.043.626q-3.211-.005-6.424,0h-.991q-3.724,0-7.449,0a1.024,1.024,0,0,1-1.023-1.411,1.007,1.007,0,0,1,1-.64h2.494q6.2,0,12.4,0A1.025,1.025,0,0,1,1978.345,215.048Z" transform="translate(-1956.75 -194.47)" fill="#fedd10"/>
    </g>
  </g>
</svg>
