<svg xmlns="http://www.w3.org/2000/svg" xmlns:xlink="http://www.w3.org/1999/xlink" width="174" height="177" viewBox="0 0 174 177">
  <defs>
    <clipPath id="clip-แผนภูมิ_">
      <rect width="174" height="177"/>
    </clipPath>
  </defs>
  <g id="แผนภูมิ_" data-name="แผนภูมิ " clip-path="url(#clip-แผนภูมิ_)">
    <g id="Group_21032" data-name="Group 21032" transform="translate(10.12)">
      <g id="Group_12449" data-name="Group 12449" transform="translate(-7 32.191)" opacity="0.6">
        <path id="Path_16893" data-name="Path 16893" d="M2981.116,1063.165c-.511.246-1.022.7-1.531.708q-16.794.047-33.583,0a1.015,1.015,0,0,1-.3-.1c.472-3.322,1.031-6.63,1.4-9.963a57.225,57.225,0,0,0-.6-15.983c-.382-2.25-.375-2.3,1.849-2.934,8.542-2.441,17.092-4.855,25.618-7.346,1.51-.443,2.229-.231,2.726,1.405a99.519,99.519,0,0,1,4.133,21.814,13.489,13.489,0,0,0,.293,1.586Z" transform="translate(-2813.356 -953.641)" fill="#f9f9f9"/>
        <path id="Path_16894" data-name="Path 16894" d="M2931.827,1108.567c-9.514-.04-16.738-10.089-11.783-20.1,4.908-9.918,9.722-19.881,14.583-29.823q13.9-28.426,27.8-56.854c1.1-2.244,2.081-2.921,3.463-2.375,1.293.511,1.594,1.628,1.054,3.972q-10.807,46.925-21.622,93.853C2943.714,1104.217,2938.527,1108.567,2931.827,1108.567Zm.521-7.271a6.6,6.6,0,1,0-6.58-6.562A6.622,6.622,0,0,0,2932.349,1101.3Z" transform="translate(-2857.569 -999.234)" fill="#f9f9f9"/>
        <path id="Path_16895" data-name="Path 16895" d="M2955.015,1010.563c.479.294.821.456,1.114.684a90.576,90.576,0,0,1,26.766,33.575c.48,1.02.284,1.6-.776,2.027q-12.591,5.034-25.159,10.128c-1.334.543-1.757-.11-2.1-1.185a52.69,52.69,0,0,0-6.809-14.257c-2.522-3.608-5.4-6.974-8.242-10.34-.86-1.017-.9-1.639-.071-2.627,4.69-5.605,9.324-11.258,14-16.879A10.441,10.441,0,0,1,2955.015,1010.563Z" transform="translate(-2823.995 -980.86)" fill="#f9f9f9"/>
        <path id="Path_16896" data-name="Path 16896" d="M2948.624,1019.508c.183,4.032.382,3.637-2.991,3.736a62.06,62.06,0,0,0-28.573,7.839c-1.445.8-2.169.566-3.015-.763q-2.721-4.279-5.694-8.39c-.96-1.321-.813-2.092.519-3.041a80.805,80.805,0,0,1,37.046-14.551c1.185-.152,1.718.215,1.791,1.442C2947.995,1010.518,2948.335,1015.25,2948.624,1019.508Z" transform="translate(-2874.929 -991.008)" fill="#f9f9f9"/>
        <path id="Path_16897" data-name="Path 16897" d="M2904.17,1050.354c-2.538-1.015-4.835-1.867-7.042-2.9-.272-.129-.282-1.29-.091-1.867a70.655,70.655,0,0,1,10.059-19.894c3.157-4.284,6.789-8.225,10.289-12.249,1.255-1.442,1.588-1.342,2.808.086,2.09,2.446,4.139,4.926,6.273,7.331.907,1.02.842,1.686-.251,2.512a70.982,70.982,0,0,0-20.927,25.578A8.631,8.631,0,0,1,2904.17,1050.354Z" transform="translate(-2892.489 -977.868)" fill="#f9f9f9"/>
        <path id="Path_16898" data-name="Path 16898" d="M2940.658,1006.086c4.247,2.153,8.219,4.135,12.156,6.18,1.127.587.64,1.408.123,2.192q-5.08,7.708-10.135,15.427c-2.339,3.563-2.287,3.479-5.915,1.156a2.509,2.509,0,0,1-1.261-3.27C2937.346,1020.75,2938.909,1013.692,2940.658,1006.086Z" transform="translate(-2829.953 -988.121)" fill="#f9f9f9"/>
        <path id="Path_16899" data-name="Path 16899" d="M2898.517,1061.927c-1.565.4-1.992-.606-2.221-2.045a84.6,84.6,0,0,1,.543-29.928c.251-1.269.813-1.639,2.053-1.248,1.452.462,2.938.81,4.419,1.172,1.088.265,1.408.881,1.062,1.932a76.941,76.941,0,0,0-3.775,28.677C2900.686,1062.013,2899.713,1061.982,2898.517,1061.927Z" transform="translate(-2895.221 -951.676)" fill="#f9f9f9"/>
        <path id="Path_16900" data-name="Path 16900" d="M2940.375,1004.862l-9.707,19.839a28.929,28.929,0,0,1-3.874-.637,1.9,1.9,0,0,1-1.1-1.41q.275-8.66.786-17.307c.026-.446.741-1.237,1.112-1.222C2931.756,1004.293,2935.922,1004.587,2940.375,1004.862Z" transform="translate(-2845.807 -991.301)" fill="#f9f9f9"/>
        <path id="Path_16901" data-name="Path 16901" d="M2927.814,1046.326a6.6,6.6,0,1,1,6.686-6.623A6.606,6.606,0,0,1,2927.814,1046.326Z" transform="translate(-2853.034 -944.263)" fill="#f9f9f9"/>
      </g>
      <g id="Group_12450" data-name="Group 12450" transform="translate(31.786 19.999)">
        <path id="Path_16893-2" data-name="Path 16893" d="M2972.927,1054.884c-.393.189-.786.542-1.176.544q-12.911.037-25.819,0a.778.778,0,0,1-.234-.079c.363-2.554.793-5.1,1.077-7.66a44,44,0,0,0-.462-12.287c-.294-1.729-.288-1.765,1.421-2.255,6.566-1.877,13.14-3.733,19.695-5.648,1.161-.34,1.713-.177,2.1,1.08a76.513,76.513,0,0,1,3.177,16.77,10.444,10.444,0,0,0,.225,1.219Z" transform="translate(-2843.954 -970.682)" fill="#eb2227"/>
        <path id="Path_16894-2" data-name="Path 16894" d="M2928.731,1083.289a10.458,10.458,0,0,1-9.059-15.454c3.774-7.625,7.475-15.284,11.211-22.928q10.685-21.854,21.375-43.709c.844-1.725,1.6-2.246,2.662-1.826.994.393,1.225,1.252.81,3.054q-8.309,36.076-16.623,72.154C2937.87,1079.945,2933.881,1083.289,2928.731,1083.289Zm.4-5.59a5.074,5.074,0,1,0-5.059-5.045A5.09,5.09,0,0,0,2929.132,1077.7Z" transform="translate(-2871.641 -999.234)" fill="#eb2227"/>
        <path id="Path_16895-2" data-name="Path 16895" d="M2951.344,1010.563c.369.226.631.351.857.526a69.636,69.636,0,0,1,20.578,25.812c.369.784.218,1.233-.6,1.558q-9.681,3.87-19.342,7.786c-1.026.417-1.351-.084-1.617-.911a40.5,40.5,0,0,0-5.235-10.961c-1.939-2.774-4.15-5.361-6.337-7.95-.662-.782-.689-1.26-.055-2.02,3.605-4.31,7.168-8.655,10.76-12.977A8.036,8.036,0,0,1,2951.344,1010.563Z" transform="translate(-2850.617 -987.727)" fill="#eb2227"/>
        <path id="Path_16896-2" data-name="Path 16896" d="M2939.17,1015.993c.141,3.1.294,2.8-2.3,2.872a47.712,47.712,0,0,0-21.967,6.027c-1.11.615-1.667.435-2.318-.586q-2.092-3.29-4.378-6.45c-.738-1.016-.625-1.609.4-2.338a62.121,62.121,0,0,1,28.481-11.187c.911-.117,1.321.166,1.376,1.109C2938.686,1009.081,2938.948,1012.72,2939.17,1015.993Z" transform="translate(-2882.513 -994.082)" fill="#eb2227"/>
        <path id="Path_16897-2" data-name="Path 16897" d="M2902.49,1041.581c-1.951-.78-3.717-1.435-5.414-2.231-.209-.1-.218-.992-.07-1.435a54.323,54.323,0,0,1,7.734-15.295c2.427-3.294,5.219-6.323,7.91-9.417.965-1.109,1.221-1.032,2.159.067,1.606,1.881,3.182,3.787,4.823,5.636.7.784.647,1.3-.194,1.931a54.571,54.571,0,0,0-16.089,19.665A6.628,6.628,0,0,1,2902.49,1041.581Z" transform="translate(-2893.51 -985.854)" fill="#eb2227"/>
        <path id="Path_16898-2" data-name="Path 16898" d="M2939.457,1006.086c3.265,1.655,6.319,3.179,9.346,4.751.867.451.492,1.082.095,1.685q-3.906,5.926-7.792,11.86c-1.8,2.739-1.758,2.675-4.547.889a1.929,1.929,0,0,1-.97-2.514C2936.911,1017.36,2938.113,1011.933,2939.457,1006.086Z" transform="translate(-2854.348 -992.274)" fill="#eb2227"/>
        <path id="Path_16899-2" data-name="Path 16899" d="M2897.755,1054.212c-1.2.306-1.532-.466-1.708-1.572a65.037,65.037,0,0,1,.417-23.009c.193-.976.625-1.26,1.578-.959,1.117.355,2.259.623,3.4.9.836.2,1.083.677.816,1.486a59.152,59.152,0,0,0-2.9,22.047C2899.422,1054.278,2898.674,1054.254,2897.755,1054.212Z" transform="translate(-2895.221 -969.451)" fill="#eb2227"/>
        <path id="Path_16900-2" data-name="Path 16900" d="M2936.979,1004.692l-7.463,15.252a22.242,22.242,0,0,1-2.979-.49,1.457,1.457,0,0,1-.848-1.084q.211-6.658.6-13.305c.02-.343.57-.951.855-.939C2930.353,1004.254,2933.556,1004.48,2936.979,1004.692Z" transform="translate(-2864.276 -994.266)" fill="#eb2227"/>
        <path id="Path_16901-2" data-name="Path 16901" d="M2926.292,1043.275a5.074,5.074,0,1,1,5.14-5.092A5.079,5.079,0,0,1,2926.292,1043.275Z" transform="translate(-2868.802 -964.809)" fill="#fff"/>
      </g>
    </g>
  </g>
</svg>
