<svg xmlns="http://www.w3.org/2000/svg" xmlns:xlink="http://www.w3.org/1999/xlink" width="174" height="177" viewBox="0 0 174 177">
  <defs>
    <clipPath id="clip-แผนภูมิ">
      <rect width="174" height="177"/>
    </clipPath>
  </defs>
  <g id="แผนภูมิ" clip-path="url(#clip-แผนภูมิ)">
    <path id="Path_21956" data-name="Path 21956" d="M42.8,20.876a4.4,4.4,0,0,1,.865-6.423A80.311,80.311,0,0,1,89.716,0c41.541,0,76.866,32.414,80.407,73.793a4.4,4.4,0,0,1-4.373,4.771H92.814a4.4,4.4,0,0,1-3.375-1.586ZM162.863,88.826H85.8L36.522,29.544a4.394,4.394,0,0,0-3.163-1.582,4.336,4.336,0,0,0-3.3,1.267,80.737,80.737,0,0,0,56.78,138.16c41.541,0,76.866-32.414,80.406-73.793a4.4,4.4,0,0,0-4.377-4.771Z" transform="translate(-2.906 5)" fill="#f7f7f7" opacity="0.6"/>
    <path id="Path_21957" data-name="Path 21957" d="M30.367,13.81a2.911,2.911,0,0,1,.572-4.249A53.127,53.127,0,0,1,61.4,0a53.716,53.716,0,0,1,53.19,48.815,2.911,2.911,0,0,1-2.893,3.156H63.452a2.908,2.908,0,0,1-2.233-1.049ZM109.79,58.759H58.811l-32.6-39.216A2.906,2.906,0,0,0,24.122,18.5a2.868,2.868,0,0,0-2.186.838A53.408,53.408,0,0,0,59.5,110.729a53.716,53.716,0,0,0,53.189-48.815,2.909,2.909,0,0,0-2.9-3.156Z" transform="translate(24.861 33.33)" fill="#eb2227"/>
  </g>
</svg>
